# xmcd
#
# Track frame offsets:
#	150
#	20500
#	34950
#	53817
#	71247
#	89015
#	103562
#	117050
#	134990
#	151235
#	169992
#	186615
#	205720
#	218825
#
# Disc length: 3147 seconds
#
# Revision: 1
# Processed by: cddbd v1.5PL3 Copyright (c) Steve Scherf et al.
# Submitted via: audiograbber 1.83.01
#
DISCID=d60c490e
DTITLE=Lütfü Gültekin - Lütfü Gültekin Türkülerinde Bulustular
DYEAR=1900
DGENRE=
TTITLE0=Yürek kocamandir
TTITLE1=Gel Ali'm
TTITLE2=Su yalan dünyaya
TTITLE3=Çagiririm dost dost
TTITLE4=Vuran vurdu
TTITLE5=Bir sonsuz rüyaya
TTITLE6=Derman sendedir
TTITLE7=Güne reyhan ekerim
TTITLE8=Ay isiginda
TTITLE9=Kan gider
TTITLE10=Hapislik zor gelir
TTITLE11=Gökte uçan huma kusu
TTITLE12=Daracik sokaklarda
TTITLE13=Divane gönül
EXTD=dikakana@hotmail.com
EXTT0=
EXTT1=
EXTT2=
EXTT3=
EXTT4=
EXTT5=
EXTT6=
EXTT7=
EXTT8=
EXTT9=
EXTT10=
EXTT11=
EXTT12=
EXTT13=
PLAYORDER=
